<svg xmlns="http://www.w3.org/2000/svg" viewBox="0 0 29 29"><path d="M0,0h7v1h-7zM9,0h3v1h-3zM15,0h1v1h-1zM18,0h2v1h-2zM22,0h7v1h-7zM0,1h1v1h-1zM6,1h1v1h-1zM8,1h2v1h-2zM11,1h3v1h-3zM15,1h1v1h-1zM17,1h2v1h-2zM22,1h1v1h-1zM28,1h1v1h-1zM0,2h1v1h-1zM2,2h3v1h-3zM6,2h1v1h-1zM8,2h1v1h-1zM10,2h3v1h-3zM15,2h3v1h-3zM19,2h1v1h-1zM22,2h1v1h-1zM24,2h3v1h-3zM28,2h1v1h-1zM0,3h1v1h-1zM2,3h3v1h-3zM6,3h1v1h-1zM9,3h1v1h-1zM11,3h1v1h-1zM14,3h3v1h-3zM18,3h3v1h-3zM22,3h1v1h-1zM24,3h3v1h-3zM28,3h1v1h-1zM0,4h1v1h-1zM2,4h3v1h-3zM6,4h1v1h-1zM8,4h2v1h-2zM11,4h1v1h-1zM13,4h4v1h-4zM18,4h1v1h-1zM22,4h1v1h-1zM24,4h3v1h-3zM28,4h1v1h-1zM0,5h1v1h-1zM6,5h1v1h-1zM8,5h1v1h-1zM10,5h1v1h-1zM14,5h2v1h-2zM17,5h3v1h-3zM22,5h1v1h-1zM28,5h1v1h-1zM0,6h7v1h-7zM8,6h1v1h-1zM10,6h1v1h-1zM12,6h1v1h-1zM14,6h1v1h-1zM16,6h1v1h-1zM18,6h1v1h-1zM20,6h1v1h-1zM22,6h7v1h-7zM8,7h1v1h-1zM10,7h3v1h-3zM14,7h1v1h-1zM17,7h1v1h-1zM19,7h2v1h-2zM0,8h2v1h-2zM3,8h1v1h-1zM6,8h2v1h-2zM11,8h3v1h-3zM16,8h1v1h-1zM18,8h3v1h-3zM22,8h3v1h-3zM26,8h2v1h-2zM1,9h1v1h-1zM3,9h1v1h-1zM5,9h1v1h-1zM8,9h2v1h-2zM12,9h1v1h-1zM14,9h1v1h-1zM18,9h1v1h-1zM21,9h3v1h-3zM25,9h1v1h-1zM28,9h1v1h-1zM0,10h1v1h-1zM3,10h1v1h-1zM5,10h2v1h-2zM13,10h1v1h-1zM19,10h1v1h-1zM21,10h2v1h-2zM24,10h4v1h-4zM4,11h2v1h-2zM7,11h7v1h-7zM16,11h1v1h-1zM18,11h5v1h-5zM26,11h2v1h-2zM0,12h4v1h-4zM5,12h2v1h-2zM10,12h4v1h-4zM15,12h3v1h-3zM19,12h5v1h-5zM25,12h1v1h-1zM27,12h2v1h-2zM1,13h3v1h-3zM5,13h1v1h-1zM8,13h2v1h-2zM12,13h1v1h-1zM14,13h1v1h-1zM17,13h4v1h-4zM0,14h3v1h-3zM4,14h5v1h-5zM10,14h2v1h-2zM13,14h2v1h-2zM18,14h1v1h-1zM20,14h1v1h-1zM22,14h1v1h-1zM24,14h5v1h-5zM2,15h1v1h-1zM4,15h2v1h-2zM7,15h1v1h-1zM9,15h1v1h-1zM11,15h5v1h-5zM17,15h2v1h-2zM22,15h2v1h-2zM25,15h1v1h-1zM27,15h1v1h-1zM2,16h2v1h-2zM5,16h4v1h-4zM10,16h3v1h-3zM15,16h1v1h-1zM17,16h1v1h-1zM20,16h2v1h-2zM27,16h1v1h-1zM1,17h2v1h-2zM7,17h2v1h-2zM10,17h5v1h-5zM16,17h2v1h-2zM22,17h2v1h-2zM25,17h1v1h-1zM28,17h1v1h-1zM0,18h1v1h-1zM3,18h1v1h-1zM6,18h3v1h-3zM10,18h1v1h-1zM14,18h1v1h-1zM17,18h2v1h-2zM21,18h4v1h-4zM27,18h2v1h-2zM5,19h1v1h-1zM10,19h3v1h-3zM14,19h6v1h-6zM22,19h2v1h-2zM27,19h2v1h-2zM0,20h1v1h-1zM2,20h1v1h-1zM4,20h3v1h-3zM8,20h3v1h-3zM12,20h4v1h-4zM20,20h5v1h-5zM26,20h1v1h-1zM8,21h3v1h-3zM16,21h1v1h-1zM20,21h1v1h-1zM24,21h1v1h-1zM26,21h3v1h-3zM0,22h7v1h-7zM8,22h1v1h-1zM12,22h2v1h-2zM16,22h1v1h-1zM18,22h1v1h-1zM20,22h1v1h-1zM22,22h1v1h-1zM24,22h1v1h-1zM27,22h1v1h-1zM0,23h1v1h-1zM6,23h1v1h-1zM10,23h1v1h-1zM12,23h5v1h-5zM18,23h1v1h-1zM20,23h1v1h-1zM24,23h3v1h-3zM28,23h1v1h-1zM0,24h1v1h-1zM2,24h3v1h-3zM6,24h1v1h-1zM9,24h1v1h-1zM13,24h1v1h-1zM16,24h3v1h-3zM20,24h5v1h-5zM28,24h1v1h-1zM0,25h1v1h-1zM2,25h3v1h-3zM6,25h1v1h-1zM8,25h1v1h-1zM12,25h2v1h-2zM20,25h1v1h-1zM22,25h5v1h-5zM0,26h1v1h-1zM2,26h3v1h-3zM6,26h1v1h-1zM11,26h1v1h-1zM14,26h1v1h-1zM17,26h1v1h-1zM19,26h2v1h-2zM24,26h3v1h-3zM28,26h1v1h-1zM0,27h1v1h-1zM6,27h1v1h-1zM8,27h6v1h-6zM17,27h6v1h-6zM24,27h1v1h-1zM27,27h1v1h-1zM0,28h7v1h-7zM8,28h1v1h-1zM12,28h1v1h-1zM15,28h1v1h-1zM17,28h1v1h-1zM19,28h3v1h-3zM23,28h2v1h-2zM27,28h1v1h-1z" fill="#7b6cf8"/></svg>
